<svg xmlns="http://www.w3.org/2000/svg" width="70.707" height="69.211" viewBox="0 0 70.707 69.211"><path fill="#333" d="M70.62 36.81c-.554-2.714-3.74-5.355-7.764-6.71-1.1-.372-1.474-.866-1.544-2.083-.013-.22-.015-.567.06-.92 2.175-.2 5.45-.968 6.328-1.41.924-.468.996-.654.3-1.396-.475-.505-.955-1.3-1.62-2.47-.667-1.17-.753-3.742-.812-6.023-.043-1.63-.637-3.355-1.952-4.824-1.387-1.646-3.476-2.695-6.174-2.695-1.67 0-3.075.4-4.218 1.096l-.003-.02c-2.69 1.686-3.83 4.16-3.89 6.442-.06 2.28-.147 4.854-.812 6.023-.666 1.17-1.146 1.963-1.622 2.47-.255.272-.405.468-.45.632-1.26-1.044-3.174-2.23-6.02-3.198-1.294-.44-1.156-1.204-1.19-2.538-.015-.526.034-.912.525-1.333.492-.42 3.824-4.385 3.648-9.506C43.158.947 37.412 0 35.168 0c-5.018 0-7.824 4.034-7.824 8.56 0 4.524 2.38 8.25 3.17 8.91 1.285 1.075 1.028 1.262 1.005 2.197-.014.494.162 1.333-1.685 2.152-1.848.818-5.04 2.464-6.384 3.95-1.542 1.708-1.66 1.92-1.613 5.895 0 0-.468-.585-2.62-1.38-2.15-.795-2.118-1.988-2.104-2.456.023-.796-.1-1.135.55-1.73 1.412-1.3 3.683-5.86 3.683-9.227s-1.894-8.63-8.173-8.63-8 5.543-8 8.806 1.627 6.92 3.404 8.886c.625.69.82.117.82 2.362 0 1.8-1.474 1.543-5.03 3.508C.814 33.77 0 36.518 0 37.623S.018 52.76.11 53.905C2.404 63.12 13.507 67.16 21.084 69.212c0 0-.018-3.86-.018-4.192 0-.333-.087-.632.316-1.56 1.92-4.425 6.912-6.087 8.122-6.667 1.21-.58 1.28-.947 1.28-1.438s.14-.684-.7-1.58C28.124 51.7 26.5 47.358 26.5 44.2c0-3.158 1.79-9.332 8.876-9.332 7.087 0 8.817 5.578 8.817 9.4 0 1.778-.188 4.123-2.8 8.613-.633 1.086-1.434 1.316-1.434 2.59 0 .516 0 .914 1.123 1.334 4.953 1.857 6.83 3.93 7.905 5.472 1.075 1.543.748 3.742.748 6.922 15.996-4.396 20.58-11.132 20.966-16.896 0-.876.035-14.838-.082-15.492zm-18.124-6.9c-.655.33-1.72.645-3.473 1.556.07-2.77-.035-3.367-.526-4.244-.17-.304-.523-.83-1.142-1.465 1.064.453 4.147 1.16 6.21 1.343.02.184.02.415.03.753.024 1.03-.444 1.73-1.1 2.058z"/></svg>